<svg xmlns="http://www.w3.org/2000/svg" viewBox="0 0 420 460" role="img" aria-label="Bichon placeholder">
  <defs>
    <filter id="soft" x="-20%" y="-20%" width="140%" height="140%">
      <feDropShadow dx="0" dy="18" stdDeviation="18" flood-color="#3a2b20" flood-opacity=".22"/>
    </filter>
  </defs>
  <g filter="url(#soft)">
    <ellipse cx="210" cy="400" rx="118" ry="24" fill="#2b211a" opacity=".12"/>
    <circle cx="130" cy="162" r="60" fill="#f2eee6"/>
    <circle cx="290" cy="162" r="60" fill="#f2eee6"/>
    <circle cx="210" cy="184" r="112" fill="#fffaf0"/>
    <circle cx="162" cy="196" r="13" fill="#27221d"/>
    <circle cx="258" cy="196" r="13" fill="#27221d"/>
    <ellipse cx="210" cy="224" rx="18" ry="13" fill="#27221d"/>
    <path d="M188 248c12 13 32 13 44 0" fill="none" stroke="#27221d" stroke-width="9" stroke-linecap="round"/>
    <path d="M120 318c24-32 62-48 90-48s66 16 90 48c32 43 4 92-90 92s-122-49-90-92z" fill="#fffaf0"/>
    <circle cx="150" cy="343" r="25" fill="#f2eee6"/>
    <circle cx="270" cy="343" r="25" fill="#f2eee6"/>
  </g>
</svg>
